<svg width="1920" height="1080" viewBox="0 0 1920 1080" xmlns="http://www.w3.org/2000/svg"><path d="M393,50.99999999999991C365.40290755916675,100.15415711144945,206.96242655227593,167.32848464808083,166.8875201666935,207.74030654584908C126.81261378111105,248.15212844361733,187.9264924397012,266.9458648267109,152.55056168650532,293.47093138660944C117.17463093330943,319.995997946508,18.819158466849323,360.901512739201,-45.36806435248187,366.89070590524057C-109.55528717181306,372.87989907128014,-186.83247510398942,369.59977682996924,-232.57277522948186,329.4060903828469C-278.31307535497433,289.2124039357246,-329.4255566268027,190.73788708890368,-319.80986510543653,125.72858722250653C-310.19417358407037,60.719287356109376,-189.58480774727718,-2.8504702404375237,-174.87862610128477,-60.649708815536016C-160.17244445529235,-118.44894739063452,-260.8817849190539,-175.14462224644882,-231.57277522948195,-221.06684422808445C-202.26376553991,-266.9890662097201,-71.41680214805123,-325.3421817003731,0.9754320361469624,-336.18304070534975C73.36766622034517,-347.0238997103264,147.5315227464496,-327.61173235502804,202.78062987570726,-286.11199825794444C258.02973700496494,-244.61226416086083,300.76684645764414,-143.36996916583888,332.47007481169294,-87.18463612284816C364.17330316574174,-30.99930307985744,420.59709244083325,1.8458428885503722,393,50.99999999999991C365.40290755916675,100.15415711144945,206.96242655227593,167.32848464808083,166.8875201666935,207.74030654584908" fill="#57cc99"/></svg>