<svg width="1920" height="1080" viewBox="0 0 1920 1080" xmlns="http://www.w3.org/2000/svg"><path d="M2306,1104C2299.3333333333335,1159.7261814116418,2275.0066364990753,1182.9314488810119,2237.470074811693,1237.6167819240027C2199.9335131243106,1292.3021149669935,2137.9032355049467,1404.7033417795215,2080.7806298757073,1432.1119982579444C2023.658024246468,1459.5206547363673,1936.6503374493254,1407.019705440389,1894.7344410362564,1402.0687207945396C1852.8185446231873,1397.11773614869,1878.709302420909,1436.3441889907544,1829.2852513972935,1402.406090382847C1779.861200373678,1368.4679917749395,1640.5393209783517,1263.9494290134926,1598.1901348945635,1198.4401291470954C1555.8409488107752,1132.9308292806982,1544.854084721695,1045.7379143978774,1575.1901348945635,1009.350291184464C1605.526185067432,972.9626679710507,1723.632802472949,1026.0366118482511,1780.2064359317746,980.1143898666156C1836.7800693906004,934.19216788498,1859.2029033235292,771.6880239820769,1914.631935647518,733.8169592946502C1970.060967971507,695.9458946072236,2052.307606681678,724.6475460488055,2112.7806298757073,752.8880017420556C2173.2536530697366,781.1284574353058,2245.266846457644,844.7410270778269,2277.470074811693,903.2596934541509C2309.673303165742,961.778359830475,2312.6666666666665,1048.2738185883582,2306,1104C2299.3333333333335,1159.7261814116418,2275.0066364990753,1182.9314488810119,2237.470074811693,1237.6167819240027" fill="#57cc99"/></svg>